<svg xmlns="http://www.w3.org/2000/svg" xmlns:xlink="http://www.w3.org/1999/xlink" zoomAndPan="magnify" preserveAspectRatio="xMidYMid meet" version="1.0" viewBox="15.56 57.95 353.44 237.05"><defs><g/><clipPath id="6b56789a22"><path d="M 327 93 L 369 93 L 369 239.445312 L 327 239.445312 Z M 327 93 " clip-rule="nonzero"/></clipPath><clipPath id="95777b312b"><path d="M 295 57.945312 L 339 57.945312 L 339 180 L 295 180 Z M 295 57.945312 " clip-rule="nonzero"/></clipPath></defs><g clip-path="url(#6b56789a22)"><path fill="#ba5a87" d="M 359.5 115.085938 C 358.257812 124.015625 353.515625 134.71875 344.535156 148.441406 C 317.5625 189.648438 326.445312 217.570312 340.773438 236.265625 C 341.53125 237.25 342.285156 238.1875 343.03125 239.085938 C 330.183594 219.910156 329.6875 190.433594 352.734375 156.890625 C 370.136719 131.550781 374.992188 110.902344 356.171875 93.121094 C 358.824219 98.410156 360.84375 105.414062 359.5 115.085938 " fill-opacity="1" fill-rule="nonzero"/></g><path fill="#ba5a87" d="M 327.769531 111.304688 L 328.753906 106.316406 C 328.753906 106.316406 346.34375 95.339844 354.929688 106.988281 C 354.929688 106.988281 348.597656 97.957031 327.769531 111.304688 " fill-opacity="1" fill-rule="nonzero"/><path fill="#ba5a87" d="M 352.496094 114.945312 C 352.496094 114.945312 351.441406 116.417969 348.394531 114.652344 C 350.082031 113.0625 350.894531 111.121094 350.894531 111.121094 C 348.496094 106.894531 343.335938 107.875 343.335938 107.875 C 348.449219 108.09375 349.410156 111.121094 349.410156 111.121094 C 349.410156 111.121094 347.550781 115.824219 339.753906 114.957031 C 331.960938 114.089844 329.484375 117.679688 329.484375 117.679688 L 329.503906 117.664062 C 330.425781 116.953125 331.730469 117.039062 332.59375 117.820312 C 333.761719 118.878906 335.777344 120.34375 338.378906 120.816406 C 338.378906 120.816406 335.800781 119.332031 334.972656 117.257812 C 334.972656 117.257812 338.644531 121.347656 343.480469 120.816406 C 343.480469 120.816406 341.109375 120.101562 340.1875 117.679688 C 340.1875 117.679688 344.992188 121.023438 349.230469 118.730469 C 349.230469 118.730469 347.246094 118.917969 345.320312 117.375 C 345.320312 117.375 351.484375 118.144531 352.496094 114.945312 " fill-opacity="1" fill-rule="nonzero"/><path fill="#ba5a87" d="M 320.628906 146.128906 C 320.628906 146.128906 321.644531 142.933594 324.792969 141.898438 C 327.9375 140.863281 327.410156 143.183594 325.488281 144.019531 C 323.566406 144.855469 321.957031 144.671875 320.628906 146.128906 " fill-opacity="1" fill-rule="nonzero"/><path fill="#ba5a87" d="M 317.5 146.128906 C 317.5 146.128906 316.484375 142.933594 313.335938 141.898438 C 310.191406 140.863281 310.71875 143.183594 312.640625 144.019531 C 314.558594 144.855469 316.171875 144.671875 317.5 146.128906 " fill-opacity="1" fill-rule="nonzero"/><path fill="#ba5a87" d="M 319.0625 160.113281 C 315.730469 160.066406 313.25 158.96875 313.25 158.96875 C 315.386719 160.546875 317.367188 161.09375 319.0625 161.117188 C 320.761719 161.09375 322.742188 160.546875 324.878906 158.96875 C 324.878906 158.96875 322.398438 160.066406 319.0625 160.113281 " fill-opacity="1" fill-rule="nonzero"/><path fill="#ba5a87" d="M 319.0625 150.246094 C 316.816406 150.226562 315.148438 149.71875 315.148438 149.71875 C 316.585938 150.449219 317.917969 150.699219 319.0625 150.710938 C 320.210938 150.699219 321.542969 150.449219 322.980469 149.71875 C 322.980469 149.71875 321.3125 150.226562 319.0625 150.246094 " fill-opacity="1" fill-rule="nonzero"/><path fill="#ba5a87" d="M 319.0625 153.582031 C 315.738281 153.582031 312.699219 150.683594 305.941406 155.179688 C 305.941406 155.179688 308.371094 153.824219 312.273438 154.257812 C 314.253906 154.476562 316.652344 155.800781 319.0625 155.800781 C 321.476562 155.800781 323.875 154.476562 325.855469 154.257812 C 329.757812 153.824219 332.1875 155.179688 332.1875 155.179688 C 325.429688 150.683594 322.390625 153.582031 319.0625 153.582031 " fill-opacity="1" fill-rule="nonzero"/><g clip-path="url(#95777b312b)"><path fill="#ba5a87" d="M 317.25 116.398438 C 338.339844 91.257812 342.371094 74.707031 335.085938 57.976562 C 339.078125 79.089844 328.078125 87.789062 314.636719 103.792969 C 296.152344 125.808594 285.539062 154.996094 310.648438 179.652344 C 292.230469 154.199219 305.226562 130.730469 317.25 116.398438 " fill-opacity="1" fill-rule="nonzero"/></g><path fill="#ba5a87" d="M 329.484375 117.679688 C 329.484375 117.679688 331.980469 116.128906 332.898438 115.921875 C 332.898438 115.921875 334.972656 113.757812 339.265625 113.847656 C 345.207031 113.96875 346.507812 111.625 346.507812 111.625 C 346.507812 111.625 344.449219 113.457031 339.835938 112.867188 C 336.664062 112.464844 332.75 112.632812 329.484375 117.679688 " fill-opacity="1" fill-rule="nonzero"/><g fill="#bc9c22" fill-opacity="1"><g transform="translate(16.841074, 221.696905)"><g><path d="M 106.96875 -22.3125 C 107.382812 -22.738281 107.859375 -22.953125 108.390625 -22.953125 C 108.816406 -22.953125 109.140625 -22.898438 109.359375 -22.796875 L 109.671875 -22.640625 C 110.523438 -21.679688 110.578125 -20.828125 109.828125 -20.078125 L 109.828125 -20.25 C 109.828125 -20.25 109.484375 -19.847656 108.796875 -19.046875 C 108.109375 -18.253906 107.175781 -17.164062 106 -15.78125 L 103.453125 -12.59375 L 94.84375 -3.5 C 93.78125 -2.550781 92.640625 -1.546875 91.421875 -0.484375 C 90.203125 0.578125 88.738281 1.535156 87.03125 2.390625 L 87.1875 2.390625 C 86.976562 2.597656 86.6875 2.753906 86.3125 2.859375 C 85.945312 2.972656 85.65625 3.082031 85.4375 3.1875 C 85.332031 3.1875 85.226562 3.238281 85.125 3.34375 C 85.019531 3.445312 84.910156 3.5 84.796875 3.5 L 83.6875 4.296875 C 83.257812 4.410156 82.78125 4.546875 82.25 4.703125 C 81.71875 4.859375 81.03125 4.9375 80.1875 4.9375 C 79.226562 4.9375 78.375 4.882812 77.625 4.78125 C 76.882812 4.675781 76.085938 4.410156 75.234375 3.984375 C 74.492188 3.453125 73.773438 2.945312 73.078125 2.46875 C 72.390625 1.988281 71.78125 1.484375 71.25 0.953125 C 69.757812 -1.171875 68.722656 -3.5625 68.140625 -6.21875 C 67.554688 -8.875 67.160156 -11.53125 66.953125 -14.1875 C 66.847656 -16.632812 66.875 -18.945312 67.03125 -21.125 C 67.1875 -23.300781 67.425781 -25.453125 67.75 -27.578125 L 68.703125 -33.640625 C 68.910156 -34.484375 68.910156 -34.90625 68.703125 -34.90625 C 68.703125 -34.90625 68.488281 -34.691406 68.0625 -34.265625 C 66.894531 -32.566406 65.859375 -30.84375 64.953125 -29.09375 C 64.054688 -27.34375 63.179688 -25.773438 62.328125 -24.390625 L 59.78125 -19.609375 C 59.351562 -18.859375 58.976562 -18.140625 58.65625 -17.453125 C 58.34375 -16.765625 58.023438 -16.046875 57.703125 -15.296875 L 53.5625 -7.484375 L 47.65625 4.78125 C 47.238281 5.84375 45.910156 6.640625 43.671875 7.171875 C 41.117188 7.171875 39.15625 6.320312 37.78125 4.625 C 37.78125 4.625 37.644531 4.515625 37.375 4.296875 C 37.113281 4.085938 36.984375 3.878906 36.984375 3.671875 C 36.878906 3.453125 36.769531 3.234375 36.65625 3.015625 C 36.550781 2.804688 36.394531 2.546875 36.1875 2.234375 L 36.34375 2.390625 C 35.175781 -0.691406 34.351562 -3.800781 33.875 -6.9375 C 33.394531 -10.070312 33.050781 -13.285156 32.84375 -16.578125 C 32.625 -19.335938 32.488281 -22.414062 32.4375 -25.8125 C 32.382812 -29.21875 32.359375 -32.566406 32.359375 -35.859375 L 32.359375 -43.515625 C 32.359375 -44.046875 32.253906 -44.3125 32.046875 -44.3125 C 31.828125 -44.3125 31.398438 -43.78125 30.765625 -42.71875 C 30.128906 -41.65625 29.546875 -40.507812 29.015625 -39.28125 C 28.484375 -38.0625 28.109375 -37.242188 27.890625 -36.828125 C 27.785156 -36.710938 27.679688 -36.441406 27.578125 -36.015625 C 27.472656 -35.597656 27.3125 -35.226562 27.09375 -34.90625 L 25.984375 -32.515625 L 24.234375 -27.578125 L 24.390625 -27.734375 C 23.328125 -24.441406 22.289062 -21.28125 21.28125 -18.25 C 20.269531 -15.21875 19.394531 -12.375 18.65625 -9.71875 C 18.4375 -8.65625 18.140625 -7.617188 17.765625 -6.609375 C 17.398438 -5.597656 17.109375 -4.507812 16.890625 -3.34375 L 15.140625 2.875 C 14.828125 3.507812 14.613281 4.460938 14.5 5.734375 C 14.5 6.898438 14.15625 8.066406 13.46875 9.234375 C 12.78125 10.410156 11.851562 11.265625 10.6875 11.796875 C 9.9375 12.222656 9.082031 12.4375 8.125 12.4375 C 5.6875 12.4375 3.878906 11.320312 2.703125 9.09375 C 2.703125 9.09375 2.625 8.957031 2.46875 8.6875 C 2.3125 8.425781 2.070312 8.023438 1.75 7.484375 C 1.539062 7.273438 1.4375 7.066406 1.4375 6.859375 C 1.21875 6.210938 1.109375 5.734375 1.109375 5.421875 C 1.109375 5.421875 1.082031 5.394531 1.03125 5.34375 C 0.976562 5.289062 0.953125 5.207031 0.953125 5.09375 L 0.3125 3.5 C 0.3125 3.082031 0.257812 2.875 0.15625 2.875 C -0.0507812 2.445312 -0.15625 1.859375 -0.15625 1.109375 C -0.15625 0.796875 -0.207031 0.585938 -0.3125 0.484375 L -0.3125 0.640625 C -0.53125 0.00390625 -0.640625 -0.632812 -0.640625 -1.28125 C -0.847656 -2.34375 -0.953125 -3.191406 -0.953125 -3.828125 C -1.054688 -4.253906 -1.109375 -4.757812 -1.109375 -5.34375 C -1.109375 -5.925781 -1.109375 -6.429688 -1.109375 -6.859375 C -1.109375 -7.273438 -1.109375 -7.671875 -1.109375 -8.046875 C -1.109375 -8.421875 -1.164062 -8.820312 -1.28125 -9.25 L -1.28125 -10.6875 C -1.28125 -11.632812 -1.25 -12.613281 -1.1875 -13.625 C -1.132812 -14.632812 -1.054688 -15.617188 -0.953125 -16.578125 C -0.953125 -17.109375 -0.925781 -17.691406 -0.875 -18.328125 C -0.820312 -18.960938 -0.742188 -19.492188 -0.640625 -19.921875 C -0.640625 -20.140625 -0.613281 -20.378906 -0.5625 -20.640625 C -0.507812 -20.910156 -0.484375 -21.046875 -0.484375 -21.046875 C -0.160156 -22.953125 0.6875 -24.332031 2.0625 -25.1875 C 3.445312 -26.039062 4.988281 -26.46875 6.6875 -26.46875 C 8.394531 -26.25 9.78125 -25.445312 10.84375 -24.0625 C 11.90625 -22.6875 12.328125 -21.09375 12.109375 -19.28125 L 12.109375 -18.171875 C 11.898438 -17.316406 11.796875 -16.414062 11.796875 -15.46875 C 11.691406 -14.820312 11.640625 -14.207031 11.640625 -13.625 C 11.640625 -13.039062 11.640625 -12.378906 11.640625 -11.640625 L 11.640625 -10.6875 C 11.640625 -10.570312 11.613281 -10.410156 11.5625 -10.203125 C 11.507812 -9.992188 11.484375 -9.78125 11.484375 -9.5625 C 11.585938 -9.25 11.640625 -8.851562 11.640625 -8.375 C 11.640625 -7.894531 11.640625 -7.546875 11.640625 -7.328125 C 11.640625 -6.898438 11.640625 -6.523438 11.640625 -6.203125 C 11.640625 -5.890625 11.691406 -5.519531 11.796875 -5.09375 L 11.796875 -3.828125 C 11.796875 -3.722656 11.820312 -3.640625 11.875 -3.578125 C 11.925781 -3.523438 11.953125 -3.394531 11.953125 -3.1875 C 12.171875 -2.757812 12.28125 -2.175781 12.28125 -1.4375 L 12.4375 -0.640625 L 15.140625 -10.6875 C 15.992188 -13.445312 16.894531 -16.335938 17.84375 -19.359375 C 18.800781 -22.390625 19.867188 -25.554688 21.046875 -28.859375 L 23.109375 -33.953125 L 22.953125 -33.796875 L 25.03125 -38.890625 C 25.457031 -39.742188 25.878906 -40.617188 26.296875 -41.515625 C 26.722656 -42.421875 27.148438 -43.25 27.578125 -44 L 30.125 -48.625 C 30.34375 -49.039062 30.453125 -49.25 30.453125 -49.25 C 30.765625 -50.101562 31.296875 -50.898438 32.046875 -51.640625 C 32.359375 -52.171875 32.832031 -52.726562 33.46875 -53.3125 C 34.113281 -53.90625 34.96875 -54.410156 36.03125 -54.828125 L 37.296875 -55.15625 C 37.617188 -55.15625 37.882812 -55.101562 38.09375 -55 C 38.3125 -55 38.578125 -54.941406 38.890625 -54.828125 C 38.890625 -54.617188 39 -54.515625 39.21875 -54.515625 C 39.53125 -54.515625 39.796875 -54.410156 40.015625 -54.203125 L 39.84375 -54.203125 L 40.484375 -54.03125 L 41.28125 -53.234375 C 41.601562 -52.921875 41.84375 -52.578125 42 -52.203125 C 42.164062 -51.828125 42.351562 -51.484375 42.5625 -51.171875 L 42.875 -50.375 L 42.71875 -51.015625 C 43.25 -50.367188 43.644531 -49.753906 43.90625 -49.171875 C 44.175781 -48.585938 44.363281 -48.082031 44.46875 -47.65625 L 44.3125 -47.828125 C 44.632812 -47.179688 44.847656 -46.59375 44.953125 -46.0625 C 45.054688 -45.53125 45.160156 -45 45.265625 -44.46875 C 45.265625 -44.050781 45.289062 -43.628906 45.34375 -43.203125 C 45.40625 -42.773438 45.488281 -42.347656 45.59375 -41.921875 L 46.859375 -25.671875 C 46.972656 -24.285156 47.054688 -22.875 47.109375 -21.4375 C 47.160156 -20 47.1875 -18.695312 47.1875 -17.53125 L 47.5 -10.203125 L 47.984375 -4.9375 L 47.984375 -3.828125 C 48.828125 -5.628906 49.804688 -7.617188 50.921875 -9.796875 C 52.046875 -11.984375 53.242188 -14.296875 54.515625 -16.734375 L 55.46875 -18.65625 C 56.113281 -19.820312 56.753906 -21.039062 57.390625 -22.3125 C 58.023438 -23.59375 58.710938 -24.816406 59.453125 -25.984375 C 60.203125 -27.046875 60.867188 -28.109375 61.453125 -29.171875 C 62.035156 -30.234375 62.695312 -31.296875 63.4375 -32.359375 L 63.4375 -32.203125 L 65.515625 -35.859375 L 69.015625 -41.453125 C 69.128906 -41.660156 69.210938 -41.84375 69.265625 -42 C 69.316406 -42.164062 69.445312 -42.40625 69.65625 -42.71875 C 69.65625 -42.9375 69.734375 -43.070312 69.890625 -43.125 C 70.054688 -43.175781 70.191406 -43.253906 70.296875 -43.359375 L 70.609375 -43.84375 L 71.25 -44.15625 L 71.09375 -44.15625 C 71.300781 -44.363281 71.566406 -44.46875 71.890625 -44.46875 C 71.890625 -44.46875 71.863281 -44.492188 71.8125 -44.546875 C 71.757812 -44.609375 71.835938 -44.691406 72.046875 -44.796875 L 72.375 -44.796875 C 72.582031 -44.898438 72.875 -44.953125 73.25 -44.953125 C 73.625 -44.953125 74.019531 -44.953125 74.4375 -44.953125 C 74.65625 -44.953125 74.816406 -44.953125 74.921875 -44.953125 C 75.023438 -44.953125 75.128906 -44.953125 75.234375 -44.953125 C 75.660156 -44.847656 76.085938 -44.660156 76.515625 -44.390625 C 76.941406 -44.128906 77.421875 -43.890625 77.953125 -43.671875 C 78.378906 -43.460938 78.75 -43.171875 79.0625 -42.796875 C 79.382812 -42.429688 79.703125 -42.035156 80.015625 -41.609375 L 80.34375 -40.65625 L 80.1875 -41.28125 C 81.351562 -39.375 81.9375 -37.195312 81.9375 -34.75 L 81.9375 -33 C 82.039062 -32.144531 82.09375 -31.023438 82.09375 -29.640625 C 82.09375 -28.265625 82.039062 -27.148438 81.9375 -26.296875 C 81.9375 -24.921875 81.910156 -23.300781 81.859375 -21.4375 C 81.804688 -19.582031 81.671875 -17.960938 81.453125 -16.578125 C 81.347656 -16.148438 81.296875 -15.722656 81.296875 -15.296875 C 81.296875 -14.878906 81.296875 -14.457031 81.296875 -14.03125 C 81.191406 -13.070312 81.140625 -12.140625 81.140625 -11.234375 C 81.140625 -10.335938 81.140625 -9.460938 81.140625 -8.609375 C 81.140625 -8.179688 81.140625 -7.78125 81.140625 -7.40625 C 81.140625 -7.039062 81.191406 -6.644531 81.296875 -6.21875 C 81.296875 -5.789062 81.320312 -5.285156 81.375 -4.703125 C 81.425781 -4.117188 81.503906 -3.5625 81.609375 -3.03125 C 81.609375 -2.5 81.769531 -2.070312 82.09375 -1.75 C 82.519531 -1.4375 83.101562 -1.222656 83.84375 -1.109375 C 83.84375 -1.109375 83.894531 -1.109375 84 -1.109375 C 84.113281 -1.109375 84.113281 -1.054688 84 -0.953125 C 84.320312 -0.953125 84.585938 -0.847656 84.796875 -0.640625 L 84.640625 -0.796875 C 84.960938 -0.796875 85.28125 -0.847656 85.59375 -0.953125 L 85.4375 -0.796875 C 85.96875 -1.003906 86.550781 -1.320312 87.1875 -1.75 C 87.832031 -2.175781 88.578125 -2.65625 89.421875 -3.1875 L 90.390625 -3.5 L 89.75 -3.34375 C 91.550781 -4.625 93.25 -6.085938 94.84375 -7.734375 C 96.4375 -9.378906 97.925781 -11 99.3125 -12.59375 L 101.21875 -14.5 L 106.171875 -21.046875 C 106.378906 -21.253906 106.5625 -21.515625 106.71875 -21.828125 C 106.882812 -22.148438 106.96875 -22.3125 106.96875 -22.3125 Z M 106.96875 -22.3125 "/></g></g></g><g fill="#bc9c22" fill-opacity="1"><g transform="translate(123.947358, 221.696905)"><g><path d="M 59.140625 -122.90625 C 59.878906 -120.457031 60.351562 -117.984375 60.5625 -115.484375 C 60.78125 -112.992188 60.835938 -110.738281 60.734375 -108.71875 C 60.523438 -105 60.097656 -102.445312 59.453125 -101.0625 L 57.703125 -97.234375 L 57.390625 -96.921875 C 57.066406 -96.285156 56.585938 -95.96875 55.953125 -95.96875 C 55.734375 -95.96875 55.414062 -96.070312 55 -96.28125 C 54.570312 -96.488281 54.273438 -96.882812 54.109375 -97.46875 C 53.953125 -98.0625 54.085938 -98.566406 54.515625 -98.984375 L 55.46875 -100.109375 C 55.46875 -100.421875 55.628906 -100.738281 55.953125 -101.0625 C 56.378906 -101.914062 56.773438 -103.03125 57.140625 -104.40625 C 57.515625 -105.789062 57.753906 -107.332031 57.859375 -109.03125 C 57.972656 -110.84375 57.921875 -112.890625 57.703125 -115.171875 C 57.492188 -117.453125 57.015625 -119.765625 56.265625 -122.109375 C 55.203125 -126.253906 53.101562 -130.023438 49.96875 -133.421875 C 46.832031 -136.828125 43.085938 -138.796875 38.734375 -139.328125 L 37.453125 -139.328125 C 37.347656 -138.265625 37.269531 -137.144531 37.21875 -135.96875 C 37.164062 -134.800781 37.035156 -133.582031 36.828125 -132.3125 L 35.234375 -112.703125 L 35.234375 -112.859375 L 33.46875 -83.6875 C 33.46875 -82.625 33.441406 -81.347656 33.390625 -79.859375 C 33.335938 -78.367188 33.257812 -77.09375 33.15625 -76.03125 C 33.15625 -74.96875 33.101562 -73.664062 33 -72.125 C 32.894531 -70.582031 32.84375 -69.226562 32.84375 -68.0625 L 32.359375 -56.75 L 36.34375 -50.53125 L 36.34375 -50.6875 L 41.125 -42.71875 L 41.125 -42.875 C 41.550781 -42.132812 42.03125 -41.257812 42.5625 -40.25 C 43.09375 -39.238281 43.570312 -38.097656 44 -36.828125 C 44.957031 -34.804688 45.832031 -32.757812 46.625 -30.6875 C 47.425781 -28.613281 48.035156 -26.675781 48.453125 -24.875 C 48.773438 -23.914062 49.039062 -22.90625 49.25 -21.84375 C 49.46875 -20.78125 49.628906 -19.660156 49.734375 -18.484375 C 49.835938 -17.421875 49.914062 -16.359375 49.96875 -15.296875 C 50.019531 -14.234375 49.992188 -13.117188 49.890625 -11.953125 C 49.785156 -9.828125 49.46875 -7.703125 48.9375 -5.578125 C 48.613281 -4.617188 48.238281 -3.660156 47.8125 -2.703125 C 47.394531 -1.753906 46.921875 -0.800781 46.390625 0.15625 C 45.109375 2.175781 43.457031 3.898438 41.4375 5.328125 C 39.425781 6.765625 37.300781 7.859375 35.0625 8.609375 C 34.644531 8.710938 34.25 8.789062 33.875 8.84375 C 33.5 8.894531 33.046875 8.921875 32.515625 8.921875 C 32.835938 12.859375 33 14.984375 33 15.296875 C 33 16.148438 32.675781 16.921875 32.03125 17.609375 C 31.394531 18.304688 30.65625 18.707031 29.8125 18.8125 C 28.851562 18.8125 28.023438 18.488281 27.328125 17.84375 C 26.640625 17.207031 26.242188 16.414062 26.140625 15.46875 C 26.140625 14.9375 26.113281 14.03125 26.0625 12.75 C 26.007812 11.476562 25.984375 9.992188 25.984375 8.296875 C 22.898438 7.441406 20.507812 6.21875 18.8125 4.625 C 17 3.238281 15.425781 1.40625 14.09375 -0.875 C 12.769531 -3.15625 11.789062 -5.359375 11.15625 -7.484375 C 10.726562 -9.296875 10.4375 -10.972656 10.28125 -12.515625 C 10.125 -14.054688 10.046875 -15.359375 10.046875 -16.421875 C 9.941406 -16.734375 9.890625 -17.265625 9.890625 -18.015625 L 9.890625 -19.921875 C 9.890625 -20.242188 10.070312 -20.585938 10.4375 -20.953125 C 10.8125 -21.328125 11.210938 -21.515625 11.640625 -21.515625 C 12.066406 -21.515625 12.460938 -21.351562 12.828125 -21.03125 C 13.203125 -20.71875 13.390625 -20.296875 13.390625 -19.765625 C 13.390625 -19.765625 13.390625 -19.65625 13.390625 -19.4375 C 13.390625 -19.226562 13.335938 -18.96875 13.234375 -18.65625 L 13.234375 -16.578125 C 13.128906 -15.617188 13.128906 -14.445312 13.234375 -13.0625 C 13.335938 -11.6875 13.601562 -10.097656 14.03125 -8.296875 L 14.03125 -8.453125 C 14.34375 -7.390625 14.6875 -6.40625 15.0625 -5.5 C 15.4375 -4.59375 15.835938 -3.71875 16.265625 -2.875 L 16.265625 -3.03125 C 17.535156 -1.007812 19.019531 0.691406 20.71875 2.078125 C 21.351562 2.492188 22.175781 2.914062 23.1875 3.34375 C 24.195312 3.769531 25.078125 4.085938 25.828125 4.296875 L 25.828125 -23.4375 C 26.035156 -25.769531 26.140625 -28.101562 26.140625 -30.4375 C 26.140625 -32.78125 26.140625 -35.117188 26.140625 -37.453125 L 26.140625 -41.765625 C 25.828125 -41.972656 25.5625 -42.289062 25.34375 -42.71875 C 25.132812 -43.144531 24.921875 -43.519531 24.703125 -43.84375 L 23.109375 -45.90625 L 23.265625 -45.90625 L 19.125 -51.328125 C 13.601562 -59.617188 8.953125 -68.519531 5.171875 -78.03125 C 1.398438 -87.539062 -0.484375 -97.34375 -0.484375 -107.4375 C -0.484375 -111.476562 0.0195312 -115.332031 1.03125 -119 C 2.039062 -122.664062 3.554688 -126.25 5.578125 -129.75 C 8.234375 -133.789062 11.953125 -137.0625 16.734375 -139.5625 C 21.515625 -142.0625 26.296875 -143.3125 31.078125 -143.3125 C 31.078125 -144.050781 31.132812 -144.582031 31.25 -144.90625 L 31.25 -144.578125 C 31.457031 -146.921875 31.585938 -148.703125 31.640625 -149.921875 C 31.691406 -151.140625 31.71875 -151.75 31.71875 -151.75 C 31.71875 -152.707031 32.085938 -153.503906 32.828125 -154.140625 C 33.578125 -154.785156 34.378906 -155.109375 35.234375 -155.109375 C 36.179688 -155.109375 36.972656 -154.707031 37.609375 -153.90625 C 38.253906 -153.113281 38.578125 -152.238281 38.578125 -151.28125 C 38.578125 -151.28125 38.492188 -150.640625 38.328125 -149.359375 C 38.171875 -148.085938 37.988281 -146.390625 37.78125 -144.265625 C 37.78125 -143.941406 37.804688 -143.726562 37.859375 -143.625 C 37.910156 -143.519531 37.882812 -143.304688 37.78125 -142.984375 L 38.09375 -142.984375 C 38.414062 -142.878906 38.84375 -142.828125 39.375 -142.828125 C 41.175781 -142.503906 42.925781 -141.941406 44.625 -141.140625 C 46.332031 -140.347656 47.875 -139.421875 49.25 -138.359375 L 49.25 -138.53125 C 51.375 -136.820312 53.421875 -134.476562 55.390625 -131.5 C 57.359375 -128.53125 58.609375 -125.664062 59.140625 -122.90625 Z M 29.96875 -125.609375 L 30.765625 -138.53125 L 28.859375 -138.046875 C 23.429688 -136.347656 19.390625 -133.453125 16.734375 -129.359375 C 14.078125 -125.265625 12.644531 -120.398438 12.4375 -114.765625 C 12.113281 -111.160156 12.269531 -107.441406 12.90625 -103.609375 C 13.863281 -97.023438 15.59375 -90.546875 18.09375 -84.171875 C 20.59375 -77.796875 23.539062 -71.738281 26.9375 -66 C 26.9375 -66.414062 26.960938 -66.8125 27.015625 -67.1875 C 27.066406 -67.5625 27.09375 -67.90625 27.09375 -68.21875 L 27.578125 -83.84375 L 27.578125 -84.796875 C 27.785156 -87.242188 27.941406 -89.632812 28.046875 -91.96875 C 28.160156 -94.3125 28.269531 -96.648438 28.375 -98.984375 C 28.582031 -101.429688 28.738281 -103.820312 28.84375 -106.15625 C 28.957031 -108.5 29.066406 -110.785156 29.171875 -113.015625 C 29.171875 -113.335938 29.195312 -113.679688 29.25 -114.046875 C 29.300781 -114.421875 29.328125 -114.769531 29.328125 -115.09375 C 29.546875 -116.894531 29.679688 -118.671875 29.734375 -120.421875 C 29.785156 -122.179688 29.863281 -123.910156 29.96875 -125.609375 Z M 33.15625 -31.078125 L 33.15625 -31.25 C 32.726562 -32.09375 32.566406 -32.460938 32.671875 -32.359375 C 32.785156 -32.253906 32.519531 -32.625 31.875 -33.46875 L 31.875 -32.359375 C 31.875 -30.867188 31.847656 -29.378906 31.796875 -27.890625 C 31.742188 -26.410156 31.769531 -24.925781 31.875 -23.4375 L 31.875 -10.84375 C 31.875 -9.144531 31.898438 -7.390625 31.953125 -5.578125 C 32.015625 -3.773438 32.097656 -2.019531 32.203125 -0.3125 C 32.203125 0.632812 32.203125 1.535156 32.203125 2.390625 C 32.203125 3.242188 32.253906 4.039062 32.359375 4.78125 L 35.0625 3.984375 C 37.832031 2.285156 39.695312 0.0546875 40.65625 -2.703125 C 41.1875 -3.878906 41.503906 -5.316406 41.609375 -7.015625 C 41.710938 -8.710938 41.660156 -10.304688 41.453125 -11.796875 C 40.804688 -14.878906 39.710938 -18.09375 38.171875 -21.4375 C 36.628906 -24.789062 34.957031 -28.003906 33.15625 -31.078125 Z M 33.15625 -31.078125 "/></g></g></g><g fill="#bc9c22" fill-opacity="1"><g transform="translate(194.554627, 221.696905)"><g><path d="M 106.96875 -22.3125 C 107.382812 -22.738281 107.859375 -22.953125 108.390625 -22.953125 C 108.816406 -22.953125 109.140625 -22.898438 109.359375 -22.796875 L 109.671875 -22.640625 C 110.523438 -21.679688 110.578125 -20.828125 109.828125 -20.078125 L 109.828125 -20.25 C 109.828125 -20.25 109.484375 -19.847656 108.796875 -19.046875 C 108.109375 -18.253906 107.175781 -17.164062 106 -15.78125 L 103.453125 -12.59375 L 94.84375 -3.5 C 93.78125 -2.550781 92.640625 -1.546875 91.421875 -0.484375 C 90.203125 0.578125 88.738281 1.535156 87.03125 2.390625 L 87.1875 2.390625 C 86.976562 2.597656 86.6875 2.753906 86.3125 2.859375 C 85.945312 2.972656 85.65625 3.082031 85.4375 3.1875 C 85.332031 3.1875 85.226562 3.238281 85.125 3.34375 C 85.019531 3.445312 84.910156 3.5 84.796875 3.5 L 83.6875 4.296875 C 83.257812 4.410156 82.78125 4.546875 82.25 4.703125 C 81.71875 4.859375 81.03125 4.9375 80.1875 4.9375 C 79.226562 4.9375 78.375 4.882812 77.625 4.78125 C 76.882812 4.675781 76.085938 4.410156 75.234375 3.984375 C 74.492188 3.453125 73.773438 2.945312 73.078125 2.46875 C 72.390625 1.988281 71.78125 1.484375 71.25 0.953125 C 69.757812 -1.171875 68.722656 -3.5625 68.140625 -6.21875 C 67.554688 -8.875 67.160156 -11.53125 66.953125 -14.1875 C 66.847656 -16.632812 66.875 -18.945312 67.03125 -21.125 C 67.1875 -23.300781 67.425781 -25.453125 67.75 -27.578125 L 68.703125 -33.640625 C 68.910156 -34.484375 68.910156 -34.90625 68.703125 -34.90625 C 68.703125 -34.90625 68.488281 -34.691406 68.0625 -34.265625 C 66.894531 -32.566406 65.859375 -30.84375 64.953125 -29.09375 C 64.054688 -27.34375 63.179688 -25.773438 62.328125 -24.390625 L 59.78125 -19.609375 C 59.351562 -18.859375 58.976562 -18.140625 58.65625 -17.453125 C 58.34375 -16.765625 58.023438 -16.046875 57.703125 -15.296875 L 53.5625 -7.484375 L 47.65625 4.78125 C 47.238281 5.84375 45.910156 6.640625 43.671875 7.171875 C 41.117188 7.171875 39.15625 6.320312 37.78125 4.625 C 37.78125 4.625 37.644531 4.515625 37.375 4.296875 C 37.113281 4.085938 36.984375 3.878906 36.984375 3.671875 C 36.878906 3.453125 36.769531 3.234375 36.65625 3.015625 C 36.550781 2.804688 36.394531 2.546875 36.1875 2.234375 L 36.34375 2.390625 C 35.175781 -0.691406 34.351562 -3.800781 33.875 -6.9375 C 33.394531 -10.070312 33.050781 -13.285156 32.84375 -16.578125 C 32.625 -19.335938 32.488281 -22.414062 32.4375 -25.8125 C 32.382812 -29.21875 32.359375 -32.566406 32.359375 -35.859375 L 32.359375 -43.515625 C 32.359375 -44.046875 32.253906 -44.3125 32.046875 -44.3125 C 31.828125 -44.3125 31.398438 -43.78125 30.765625 -42.71875 C 30.128906 -41.65625 29.546875 -40.507812 29.015625 -39.28125 C 28.484375 -38.0625 28.109375 -37.242188 27.890625 -36.828125 C 27.785156 -36.710938 27.679688 -36.441406 27.578125 -36.015625 C 27.472656 -35.597656 27.3125 -35.226562 27.09375 -34.90625 L 25.984375 -32.515625 L 24.234375 -27.578125 L 24.390625 -27.734375 C 23.328125 -24.441406 22.289062 -21.28125 21.28125 -18.25 C 20.269531 -15.21875 19.394531 -12.375 18.65625 -9.71875 C 18.4375 -8.65625 18.140625 -7.617188 17.765625 -6.609375 C 17.398438 -5.597656 17.109375 -4.507812 16.890625 -3.34375 L 15.140625 2.875 C 14.828125 3.507812 14.613281 4.460938 14.5 5.734375 C 14.5 6.898438 14.15625 8.066406 13.46875 9.234375 C 12.78125 10.410156 11.851562 11.265625 10.6875 11.796875 C 9.9375 12.222656 9.082031 12.4375 8.125 12.4375 C 5.6875 12.4375 3.878906 11.320312 2.703125 9.09375 C 2.703125 9.09375 2.625 8.957031 2.46875 8.6875 C 2.3125 8.425781 2.070312 8.023438 1.75 7.484375 C 1.539062 7.273438 1.4375 7.066406 1.4375 6.859375 C 1.21875 6.210938 1.109375 5.734375 1.109375 5.421875 C 1.109375 5.421875 1.082031 5.394531 1.03125 5.34375 C 0.976562 5.289062 0.953125 5.207031 0.953125 5.09375 L 0.3125 3.5 C 0.3125 3.082031 0.257812 2.875 0.15625 2.875 C -0.0507812 2.445312 -0.15625 1.859375 -0.15625 1.109375 C -0.15625 0.796875 -0.207031 0.585938 -0.3125 0.484375 L -0.3125 0.640625 C -0.53125 0.00390625 -0.640625 -0.632812 -0.640625 -1.28125 C -0.847656 -2.34375 -0.953125 -3.191406 -0.953125 -3.828125 C -1.054688 -4.253906 -1.109375 -4.757812 -1.109375 -5.34375 C -1.109375 -5.925781 -1.109375 -6.429688 -1.109375 -6.859375 C -1.109375 -7.273438 -1.109375 -7.671875 -1.109375 -8.046875 C -1.109375 -8.421875 -1.164062 -8.820312 -1.28125 -9.25 L -1.28125 -10.6875 C -1.28125 -11.632812 -1.25 -12.613281 -1.1875 -13.625 C -1.132812 -14.632812 -1.054688 -15.617188 -0.953125 -16.578125 C -0.953125 -17.109375 -0.925781 -17.691406 -0.875 -18.328125 C -0.820312 -18.960938 -0.742188 -19.492188 -0.640625 -19.921875 C -0.640625 -20.140625 -0.613281 -20.378906 -0.5625 -20.640625 C -0.507812 -20.910156 -0.484375 -21.046875 -0.484375 -21.046875 C -0.160156 -22.953125 0.6875 -24.332031 2.0625 -25.1875 C 3.445312 -26.039062 4.988281 -26.46875 6.6875 -26.46875 C 8.394531 -26.25 9.78125 -25.445312 10.84375 -24.0625 C 11.90625 -22.6875 12.328125 -21.09375 12.109375 -19.28125 L 12.109375 -18.171875 C 11.898438 -17.316406 11.796875 -16.414062 11.796875 -15.46875 C 11.691406 -14.820312 11.640625 -14.207031 11.640625 -13.625 C 11.640625 -13.039062 11.640625 -12.378906 11.640625 -11.640625 L 11.640625 -10.6875 C 11.640625 -10.570312 11.613281 -10.410156 11.5625 -10.203125 C 11.507812 -9.992188 11.484375 -9.78125 11.484375 -9.5625 C 11.585938 -9.25 11.640625 -8.851562 11.640625 -8.375 C 11.640625 -7.894531 11.640625 -7.546875 11.640625 -7.328125 C 11.640625 -6.898438 11.640625 -6.523438 11.640625 -6.203125 C 11.640625 -5.890625 11.691406 -5.519531 11.796875 -5.09375 L 11.796875 -3.828125 C 11.796875 -3.722656 11.820312 -3.640625 11.875 -3.578125 C 11.925781 -3.523438 11.953125 -3.394531 11.953125 -3.1875 C 12.171875 -2.757812 12.28125 -2.175781 12.28125 -1.4375 L 12.4375 -0.640625 L 15.140625 -10.6875 C 15.992188 -13.445312 16.894531 -16.335938 17.84375 -19.359375 C 18.800781 -22.390625 19.867188 -25.554688 21.046875 -28.859375 L 23.109375 -33.953125 L 22.953125 -33.796875 L 25.03125 -38.890625 C 25.457031 -39.742188 25.878906 -40.617188 26.296875 -41.515625 C 26.722656 -42.421875 27.148438 -43.25 27.578125 -44 L 30.125 -48.625 C 30.34375 -49.039062 30.453125 -49.25 30.453125 -49.25 C 30.765625 -50.101562 31.296875 -50.898438 32.046875 -51.640625 C 32.359375 -52.171875 32.832031 -52.726562 33.46875 -53.3125 C 34.113281 -53.90625 34.96875 -54.410156 36.03125 -54.828125 L 37.296875 -55.15625 C 37.617188 -55.15625 37.882812 -55.101562 38.09375 -55 C 38.3125 -55 38.578125 -54.941406 38.890625 -54.828125 C 38.890625 -54.617188 39 -54.515625 39.21875 -54.515625 C 39.53125 -54.515625 39.796875 -54.410156 40.015625 -54.203125 L 39.84375 -54.203125 L 40.484375 -54.03125 L 41.28125 -53.234375 C 41.601562 -52.921875 41.84375 -52.578125 42 -52.203125 C 42.164062 -51.828125 42.351562 -51.484375 42.5625 -51.171875 L 42.875 -50.375 L 42.71875 -51.015625 C 43.25 -50.367188 43.644531 -49.753906 43.90625 -49.171875 C 44.175781 -48.585938 44.363281 -48.082031 44.46875 -47.65625 L 44.3125 -47.828125 C 44.632812 -47.179688 44.847656 -46.59375 44.953125 -46.0625 C 45.054688 -45.53125 45.160156 -45 45.265625 -44.46875 C 45.265625 -44.050781 45.289062 -43.628906 45.34375 -43.203125 C 45.40625 -42.773438 45.488281 -42.347656 45.59375 -41.921875 L 46.859375 -25.671875 C 46.972656 -24.285156 47.054688 -22.875 47.109375 -21.4375 C 47.160156 -20 47.1875 -18.695312 47.1875 -17.53125 L 47.5 -10.203125 L 47.984375 -4.9375 L 47.984375 -3.828125 C 48.828125 -5.628906 49.804688 -7.617188 50.921875 -9.796875 C 52.046875 -11.984375 53.242188 -14.296875 54.515625 -16.734375 L 55.46875 -18.65625 C 56.113281 -19.820312 56.753906 -21.039062 57.390625 -22.3125 C 58.023438 -23.59375 58.710938 -24.816406 59.453125 -25.984375 C 60.203125 -27.046875 60.867188 -28.109375 61.453125 -29.171875 C 62.035156 -30.234375 62.695312 -31.296875 63.4375 -32.359375 L 63.4375 -32.203125 L 65.515625 -35.859375 L 69.015625 -41.453125 C 69.128906 -41.660156 69.210938 -41.84375 69.265625 -42 C 69.316406 -42.164062 69.445312 -42.40625 69.65625 -42.71875 C 69.65625 -42.9375 69.734375 -43.070312 69.890625 -43.125 C 70.054688 -43.175781 70.191406 -43.253906 70.296875 -43.359375 L 70.609375 -43.84375 L 71.25 -44.15625 L 71.09375 -44.15625 C 71.300781 -44.363281 71.566406 -44.46875 71.890625 -44.46875 C 71.890625 -44.46875 71.863281 -44.492188 71.8125 -44.546875 C 71.757812 -44.609375 71.835938 -44.691406 72.046875 -44.796875 L 72.375 -44.796875 C 72.582031 -44.898438 72.875 -44.953125 73.25 -44.953125 C 73.625 -44.953125 74.019531 -44.953125 74.4375 -44.953125 C 74.65625 -44.953125 74.816406 -44.953125 74.921875 -44.953125 C 75.023438 -44.953125 75.128906 -44.953125 75.234375 -44.953125 C 75.660156 -44.847656 76.085938 -44.660156 76.515625 -44.390625 C 76.941406 -44.128906 77.421875 -43.890625 77.953125 -43.671875 C 78.378906 -43.460938 78.75 -43.171875 79.0625 -42.796875 C 79.382812 -42.429688 79.703125 -42.035156 80.015625 -41.609375 L 80.34375 -40.65625 L 80.1875 -41.28125 C 81.351562 -39.375 81.9375 -37.195312 81.9375 -34.75 L 81.9375 -33 C 82.039062 -32.144531 82.09375 -31.023438 82.09375 -29.640625 C 82.09375 -28.265625 82.039062 -27.148438 81.9375 -26.296875 C 81.9375 -24.921875 81.910156 -23.300781 81.859375 -21.4375 C 81.804688 -19.582031 81.671875 -17.960938 81.453125 -16.578125 C 81.347656 -16.148438 81.296875 -15.722656 81.296875 -15.296875 C 81.296875 -14.878906 81.296875 -14.457031 81.296875 -14.03125 C 81.191406 -13.070312 81.140625 -12.140625 81.140625 -11.234375 C 81.140625 -10.335938 81.140625 -9.460938 81.140625 -8.609375 C 81.140625 -8.179688 81.140625 -7.78125 81.140625 -7.40625 C 81.140625 -7.039062 81.191406 -6.644531 81.296875 -6.21875 C 81.296875 -5.789062 81.320312 -5.285156 81.375 -4.703125 C 81.425781 -4.117188 81.503906 -3.5625 81.609375 -3.03125 C 81.609375 -2.5 81.769531 -2.070312 82.09375 -1.75 C 82.519531 -1.4375 83.101562 -1.222656 83.84375 -1.109375 C 83.84375 -1.109375 83.894531 -1.109375 84 -1.109375 C 84.113281 -1.109375 84.113281 -1.054688 84 -0.953125 C 84.320312 -0.953125 84.585938 -0.847656 84.796875 -0.640625 L 84.640625 -0.796875 C 84.960938 -0.796875 85.28125 -0.847656 85.59375 -0.953125 L 85.4375 -0.796875 C 85.96875 -1.003906 86.550781 -1.320312 87.1875 -1.75 C 87.832031 -2.175781 88.578125 -2.65625 89.421875 -3.1875 L 90.390625 -3.5 L 89.75 -3.34375 C 91.550781 -4.625 93.25 -6.085938 94.84375 -7.734375 C 96.4375 -9.378906 97.925781 -11 99.3125 -12.59375 L 101.21875 -14.5 L 106.171875 -21.046875 C 106.378906 -21.253906 106.5625 -21.515625 106.71875 -21.828125 C 106.882812 -22.148438 106.96875 -22.3125 106.96875 -22.3125 Z M 106.96875 -22.3125 "/></g></g></g><g fill="#940f28" fill-opacity="1"><g transform="translate(18.512418, 288.801013)"><g><path d="M 1.578125 -0.28125 C 2.078125 -0.28125 2.503906 -0.457031 2.859375 -0.8125 C 3.210938 -1.164062 3.398438 -1.59375 3.421875 -2.09375 L 3.421875 -18.03125 C 3.398438 -18.71875 3.082031 -19.234375 2.46875 -19.578125 C 2.195312 -19.734375 1.898438 -19.8125 1.578125 -19.8125 L 1.203125 -19.8125 L 1.203125 -20.09375 L 9.9375 -20.09375 L 9.90625 -19.8125 L 9.5625 -19.8125 C 9.0625 -19.8125 8.628906 -19.632812 8.265625 -19.28125 C 7.898438 -18.9375 7.71875 -18.519531 7.71875 -18.03125 L 7.71875 -2.09375 C 7.71875 -1.59375 7.898438 -1.164062 8.265625 -0.8125 C 8.628906 -0.457031 9.0625 -0.28125 9.5625 -0.28125 L 9.90625 -0.28125 L 9.9375 0 L 1.203125 0 L 1.203125 -0.28125 Z M 30.078125 4.875 C 28.679688 5.601562 27.410156 5.96875 26.265625 5.96875 C 25.117188 5.96875 24.082031 5.804688 23.15625 5.484375 C 20.882812 4.660156 18.5625 2.773438 16.1875 -0.171875 L 8.640625 -9.46875 L 15.4375 -18.484375 C 15.59375 -18.671875 15.671875 -18.84375 15.671875 -19 C 15.671875 -19.15625 15.640625 -19.289062 15.578125 -19.40625 C 15.429688 -19.6875 15.164062 -19.828125 14.78125 -19.828125 L 14.5 -19.828125 L 14.5 -20.09375 L 21.0625 -20.09375 L 21.0625 -19.828125 L 20.953125 -19.828125 C 19.671875 -19.828125 18.628906 -19.367188 17.828125 -18.453125 L 12.234375 -11.796875 L 20.03125 -2.09375 C 21.769531 0.195312 23.40625 1.859375 24.9375 2.890625 C 26.46875 3.929688 28.171875 4.5 30.046875 4.59375 Z M 30.078125 4.875 "/></g></g></g><g fill="#940f28" fill-opacity="1"><g transform="translate(59.020474, 288.801013)"><g><path d="M 9.53125 -12.828125 C 9.1875 -13.554688 9.015625 -14.25 9.015625 -14.90625 C 9.015625 -15.570312 9.097656 -16.1875 9.265625 -16.75 C 9.441406 -17.3125 9.726562 -17.863281 10.125 -18.40625 C 10.53125 -18.957031 11.097656 -19.414062 11.828125 -19.78125 C 12.816406 -20.289062 14.007812 -20.546875 15.40625 -20.546875 C 17.25 -20.546875 18.992188 -20.078125 20.640625 -19.140625 C 22.796875 -17.921875 24.296875 -16.226562 25.140625 -14.0625 C 25.617188 -12.875 25.859375 -11.601562 25.859375 -10.25 C 25.859375 -7.050781 24.703125 -4.472656 22.390625 -2.515625 C 20.085938 -0.566406 17.085938 0.40625 13.390625 0.40625 C 9.691406 0.40625 6.675781 -0.566406 4.34375 -2.515625 C 2.019531 -4.472656 0.859375 -7.039062 0.859375 -10.21875 C 0.859375 -12.59375 1.53125 -14.65625 2.875 -16.40625 C 4.226562 -18.15625 6.054688 -19.347656 8.359375 -19.984375 L 8.53125 -19.71875 C 7.550781 -18.894531 6.8125 -17.6875 6.3125 -16.09375 C 5.8125 -14.507812 5.5625 -12.800781 5.5625 -10.96875 C 5.5625 -7.863281 6.28125 -5.390625 7.71875 -3.546875 C 9.15625 -1.710938 11.035156 -0.796875 13.359375 -0.796875 C 15.679688 -0.796875 17.554688 -1.660156 18.984375 -3.390625 C 20.410156 -5.128906 21.125 -7.425781 21.125 -10.28125 C 21.125 -12 20.859375 -13.550781 20.328125 -14.9375 C 19.804688 -16.320312 19.046875 -17.390625 18.046875 -18.140625 C 17.054688 -18.898438 15.945312 -19.28125 14.71875 -19.28125 C 13.363281 -19.28125 12.265625 -18.925781 11.421875 -18.21875 C 10.234375 -17.207031 9.640625 -15.921875 9.640625 -14.359375 C 9.640625 -13.859375 9.707031 -13.347656 9.84375 -12.828125 Z M 9.53125 -12.828125 "/></g></g></g><g fill="#940f28" fill-opacity="1"><g transform="translate(104.3803, 288.801013)"><g><path d="M 2.703125 -8.15625 C 1.929688 -6.925781 1.546875 -5.671875 1.546875 -4.390625 C 1.546875 -2.992188 2.054688 -1.722656 3.078125 -0.578125 C 3.628906 0.078125 4.328125 0.585938 5.171875 0.953125 C 6.023438 1.316406 6.957031 1.5 7.96875 1.5 C 8.988281 1.5 9.898438 1.304688 10.703125 0.921875 C 12.316406 0.128906 13.125 -1.148438 13.125 -2.921875 C 13.125 -3.597656 12.894531 -4.304688 12.4375 -5.046875 C 11.988281 -5.796875 11.316406 -6.46875 10.421875 -7.0625 L 5.546875 -10.328125 C 3.648438 -11.515625 2.703125 -13.046875 2.703125 -14.921875 C 2.703125 -15.117188 2.710938 -15.3125 2.734375 -15.5 C 2.847656 -16.96875 3.429688 -18.164062 4.484375 -19.09375 C 5.546875 -20.03125 6.96875 -20.5 8.75 -20.5 C 9.84375 -20.5 11.164062 -20.398438 12.71875 -20.203125 L 14.5 -20.203125 L 14.125 -15.984375 L 13.859375 -15.984375 C 13.835938 -16.984375 13.453125 -17.78125 12.703125 -18.375 C 11.960938 -18.976562 10.984375 -19.28125 9.765625 -19.28125 C 8.265625 -19.28125 7.179688 -18.832031 6.515625 -17.9375 C 6.191406 -17.476562 6.03125 -16.976562 6.03125 -16.4375 C 6.03125 -15.90625 6.191406 -15.453125 6.515625 -15.078125 C 6.835938 -14.710938 7.351562 -14.304688 8.0625 -13.859375 L 13.4375 -10.359375 C 14.519531 -9.648438 15.367188 -8.816406 15.984375 -7.859375 C 16.710938 -6.734375 17.078125 -5.578125 17.078125 -4.390625 C 17.078125 -3.628906 16.914062 -2.820312 16.59375 -1.96875 C 16.28125 -1.113281 15.765625 -0.320312 15.046875 0.40625 C 14.335938 1.132812 13.414062 1.726562 12.28125 2.1875 C 11.15625 2.644531 9.90625 2.875 8.53125 2.875 C 7.164062 2.875 5.929688 2.632812 4.828125 2.15625 C 2.773438 1.289062 1.472656 -0.210938 0.921875 -2.359375 C 0.804688 -2.816406 0.75 -3.289062 0.75 -3.78125 C 0.75 -5.394531 1.3125 -6.921875 2.4375 -8.359375 Z M 2.703125 -8.15625 "/></g></g></g><g fill="#940f28" fill-opacity="1"><g transform="translate(140.926546, 288.801013)"><g><path d="M -2.75 -21.984375 C -1.664062 -22.441406 -0.722656 -22.671875 0.078125 -22.671875 C 0.890625 -22.671875 1.597656 -22.59375 2.203125 -22.4375 C 2.816406 -22.289062 3.441406 -22.039062 4.078125 -21.6875 C 4.722656 -21.332031 5.328125 -20.894531 5.890625 -20.375 C 6.953125 -19.363281 7.859375 -18.21875 8.609375 -16.9375 L 14.359375 -6.171875 L 22.671875 -20.5 L 22.9375 -20.5 L 25.921875 -3.609375 C 26.378906 -1.015625 27.171875 1.046875 28.296875 2.578125 C 29.429688 4.128906 30.984375 4.90625 32.953125 4.90625 C 33.085938 4.90625 33.210938 4.90625 33.328125 4.90625 L 33.328125 5.1875 C 32.273438 5.476562 31.238281 5.625 30.21875 5.625 C 28.15625 5.625 26.269531 4.8125 24.5625 3.1875 C 22.914062 1.632812 21.800781 -0.628906 21.21875 -3.609375 L 19.8125 -11.96875 L 14.40625 -2.609375 C 13.675781 -1.398438 13.304688 -0.335938 13.296875 0.578125 L 13.03125 0.578125 L 5.890625 -12.96875 L 4.484375 -1.5 C 4.421875 -1.050781 4.609375 -0.695312 5.046875 -0.4375 C 5.222656 -0.320312 5.40625 -0.265625 5.59375 -0.265625 L 6.0625 -0.265625 L 6.0625 0 L 0.0625 0 L 0.0625 -0.28125 L 0.515625 -0.28125 C 1.015625 -0.28125 1.457031 -0.425781 1.84375 -0.71875 C 2.238281 -1.019531 2.484375 -1.429688 2.578125 -1.953125 L 4.53125 -15.640625 C 3.675781 -17.171875 2.691406 -18.53125 1.578125 -19.71875 C 0.335938 -21.0625 -0.960938 -21.734375 -2.328125 -21.734375 C -2.460938 -21.734375 -2.585938 -21.722656 -2.703125 -21.703125 Z M -2.75 -21.984375 "/></g></g></g><g fill="#940f28" fill-opacity="1"><g transform="translate(187.377308, 288.801013)"><g><path d="M 1.578125 -0.28125 C 2.078125 -0.28125 2.503906 -0.457031 2.859375 -0.8125 C 3.210938 -1.164062 3.398438 -1.59375 3.421875 -2.09375 L 3.421875 -18.078125 C 3.359375 -18.753906 3.039062 -19.253906 2.46875 -19.578125 C 2.175781 -19.734375 1.878906 -19.8125 1.578125 -19.8125 L 1.203125 -19.8125 L 1.203125 -20.09375 L 9.265625 -20.09375 C 10.109375 -20.09375 10.84375 -20.160156 11.46875 -20.296875 C 12.101562 -20.429688 12.519531 -20.535156 12.71875 -20.609375 L 12.71875 -15.578125 L 12.40625 -15.578125 L 12.40625 -15.9375 C 12.414062 -16.789062 12.164062 -17.476562 11.65625 -18 C 11.15625 -18.53125 10.472656 -18.816406 9.609375 -18.859375 L 7.71875 -18.859375 L 7.71875 -10.5 L 12.28125 -10.5 C 12.988281 -10.519531 13.570312 -10.765625 14.03125 -11.234375 C 14.488281 -11.703125 14.71875 -12.28125 14.71875 -12.96875 L 14.71875 -13.234375 L 14.984375 -13.234375 L 14.984375 -6.609375 L 14.71875 -6.609375 L 14.71875 -6.828125 C 14.71875 -7.535156 14.488281 -8.117188 14.03125 -8.578125 C 13.570312 -9.035156 13 -9.273438 12.3125 -9.296875 L 7.71875 -9.296875 L 7.71875 -1.234375 L 13.3125 -1.234375 C 14.707031 -1.234375 15.878906 -1.632812 16.828125 -2.4375 C 17.773438 -3.238281 18.476562 -4.378906 18.9375 -5.859375 L 19.234375 -5.859375 L 17.875 0 L 1.203125 0 L 1.203125 -0.28125 Z M 1.578125 -0.28125 "/></g></g></g><g fill="#940f28" fill-opacity="1"><g transform="translate(225.272884, 288.801013)"><g><path d="M -0.71875 -13.40625 C -1.65625 -14.300781 -2.125 -15.265625 -2.125 -16.296875 C -2.125 -17.109375 -1.863281 -17.8125 -1.34375 -18.40625 C -0.363281 -19.550781 1.003906 -20.125 2.765625 -20.125 L 16.28125 -20.125 C 17.125 -20.144531 17.859375 -20.210938 18.484375 -20.328125 C 19.117188 -20.453125 19.519531 -20.554688 19.6875 -20.640625 L 19.6875 -15.640625 L 19.40625 -15.640625 L 19.40625 -15.984375 C 19.40625 -16.847656 19.144531 -17.546875 18.625 -18.078125 C 18.113281 -18.617188 17.414062 -18.898438 16.53125 -18.921875 L 12.65625 -18.921875 L 12.65625 -2.0625 C 12.695312 -1.375 13.015625 -0.859375 13.609375 -0.515625 C 13.878906 -0.359375 14.175781 -0.28125 14.5 -0.28125 L 14.875 -0.28125 L 14.875 0 L 6.140625 0 L 6.140625 -0.28125 L 6.515625 -0.28125 C 7.015625 -0.28125 7.441406 -0.453125 7.796875 -0.796875 C 8.148438 -1.148438 8.335938 -1.5625 8.359375 -2.03125 L 8.359375 -18.921875 L 2.765625 -18.921875 C 1.972656 -18.921875 1.28125 -18.773438 0.6875 -18.484375 C -0.507812 -17.910156 -1.109375 -17.007812 -1.109375 -15.78125 C -1.109375 -15.0625 -0.878906 -14.316406 -0.421875 -13.546875 Z M -0.71875 -13.40625 "/></g></g></g><g fill="#940f28" fill-opacity="1"><g transform="translate(263.972302, 288.801013)"><g><path d="M 11.59375 -0.28125 L 11.96875 -0.28125 L 11.96875 0 L 3.25 0 L 3.25 -0.28125 L 3.625 -0.28125 C 4.113281 -0.28125 4.535156 -0.457031 4.890625 -0.8125 C 5.242188 -1.164062 5.429688 -1.59375 5.453125 -2.09375 L 5.453125 -18.921875 L 2.734375 -18.796875 C 0.929688 -18.722656 0.03125 -18.054688 0.03125 -16.796875 C 0.03125 -16.273438 0.207031 -15.835938 0.5625 -15.484375 C 0.914062 -15.128906 1.410156 -14.953125 2.046875 -14.953125 C 2.097656 -14.953125 2.15625 -14.953125 2.21875 -14.953125 L 2.21875 -14.78125 C 1.832031 -14.644531 1.503906 -14.578125 1.234375 -14.578125 C 0.367188 -14.578125 -0.289062 -14.882812 -0.75 -15.5 C -1.070312 -15.914062 -1.234375 -16.394531 -1.234375 -16.9375 C -1.234375 -17.78125 -0.898438 -18.472656 -0.234375 -19.015625 C 0.421875 -19.554688 1.4375 -19.878906 2.8125 -19.984375 C 3.0625 -19.992188 3.863281 -20.03125 5.21875 -20.09375 C 8.320312 -20.207031 10.570312 -20.398438 11.96875 -20.671875 L 12.03125 -20.375 C 11.207031 -20.238281 10.628906 -19.960938 10.296875 -19.546875 C 9.960938 -19.128906 9.785156 -18.507812 9.765625 -17.6875 L 9.765625 -2.09375 C 9.785156 -1.59375 9.972656 -1.164062 10.328125 -0.8125 C 10.679688 -0.457031 11.101562 -0.28125 11.59375 -0.28125 Z M 11.59375 -0.28125 "/></g></g></g><g fill="#940f28" fill-opacity="1"><g transform="translate(295.72421, 288.801013)"><g><path d="M 1.578125 -0.28125 C 2.078125 -0.28125 2.503906 -0.457031 2.859375 -0.8125 C 3.210938 -1.164062 3.398438 -1.59375 3.421875 -2.09375 L 3.421875 -18.03125 C 3.398438 -18.71875 3.082031 -19.234375 2.46875 -19.578125 C 2.195312 -19.734375 1.898438 -19.8125 1.578125 -19.8125 L 1.203125 -19.8125 L 1.203125 -20.09375 L 9.9375 -20.09375 L 9.90625 -19.8125 L 9.5625 -19.8125 C 9.0625 -19.8125 8.628906 -19.632812 8.265625 -19.28125 C 7.898438 -18.9375 7.71875 -18.519531 7.71875 -18.03125 L 7.71875 -2.09375 C 7.71875 -1.59375 7.898438 -1.164062 8.265625 -0.8125 C 8.628906 -0.457031 9.0625 -0.28125 9.5625 -0.28125 L 9.90625 -0.28125 L 9.9375 0 L 1.203125 0 L 1.203125 -0.28125 Z M 30.078125 4.875 C 28.679688 5.601562 27.410156 5.96875 26.265625 5.96875 C 25.117188 5.96875 24.082031 5.804688 23.15625 5.484375 C 20.882812 4.660156 18.5625 2.773438 16.1875 -0.171875 L 8.640625 -9.46875 L 15.4375 -18.484375 C 15.59375 -18.671875 15.671875 -18.84375 15.671875 -19 C 15.671875 -19.15625 15.640625 -19.289062 15.578125 -19.40625 C 15.429688 -19.6875 15.164062 -19.828125 14.78125 -19.828125 L 14.5 -19.828125 L 14.5 -20.09375 L 21.0625 -20.09375 L 21.0625 -19.828125 L 20.953125 -19.828125 C 19.671875 -19.828125 18.628906 -19.367188 17.828125 -18.453125 L 12.234375 -11.796875 L 20.03125 -2.09375 C 21.769531 0.195312 23.40625 1.859375 24.9375 2.890625 C 26.46875 3.929688 28.171875 4.5 30.046875 4.59375 Z M 30.078125 4.875 "/></g></g></g><g fill="#940f28" fill-opacity="1"><g transform="translate(336.232275, 288.801013)"><g><path d="M 27.734375 5.25 C 25.640625 6.300781 23.523438 6.472656 21.390625 5.765625 C 19.109375 5.035156 17.144531 3.488281 15.5 1.125 C 14.625 -0.144531 13.867188 -1.609375 13.234375 -3.265625 L 12.3125 -5.71875 L 5.546875 -5.71875 L 4.015625 -2.09375 C 3.921875 -1.84375 3.875 -1.640625 3.875 -1.484375 C 3.875 -1.335938 3.90625 -1.171875 3.96875 -0.984375 C 4.039062 -0.804688 4.1875 -0.644531 4.40625 -0.5 C 4.625 -0.351562 4.867188 -0.28125 5.140625 -0.28125 L 5.375 -0.28125 L 5.375 0 L -0.765625 0 L -0.765625 -0.28125 L -0.515625 -0.28125 C -0.078125 -0.28125 0.351562 -0.410156 0.78125 -0.671875 C 1.21875 -0.929688 1.582031 -1.320312 1.875 -1.84375 L 8.265625 -16.453125 C 7.523438 -18.128906 6.734375 -19.285156 5.890625 -19.921875 C 5.179688 -20.453125 4.503906 -20.71875 3.859375 -20.71875 C 3.222656 -20.71875 2.625 -20.625 2.0625 -20.4375 L 2.015625 -20.71875 C 3.390625 -21.425781 4.707031 -21.78125 5.96875 -21.78125 C 7.539062 -21.78125 8.945312 -21.171875 10.1875 -19.953125 C 11.414062 -18.742188 12.5 -17 13.4375 -14.71875 L 17.59375 -4.453125 C 19.164062 -0.566406 20.773438 2.101562 22.421875 3.5625 C 23.085938 4.15625 23.773438 4.566406 24.484375 4.796875 C 25.191406 5.023438 25.789062 5.140625 26.28125 5.140625 C 26.769531 5.140625 27.242188 5.082031 27.703125 4.96875 Z M 6.03125 -6.953125 L 11.890625 -6.953125 L 9.875 -12.25 C 9.78125 -12.519531 9.644531 -12.890625 9.46875 -13.359375 C 9.300781 -13.828125 9.1875 -14.160156 9.125 -14.359375 Z M 6.03125 -6.953125 "/></g></g></g></svg>